<svg width="20" height="18" viewBox="0 0 20 18" fill="none" xmlns="http://www.w3.org/2000/svg">
<path fill-rule="evenodd" clip-rule="evenodd" d="M2.5 15.875V7.75003H3.75V15.875C3.75 16.2202 4.02982 16.5 4.375 16.5H15.625C15.9702 16.5 16.25 16.2202 16.25 15.875V7.75003H17.5V15.875C17.5 16.9106 16.6605 17.75 15.625 17.75H4.375C3.33947 17.75 2.5 16.9106 2.5 15.875Z" fill="#1ED760"/>
<path fill-rule="evenodd" clip-rule="evenodd" d="M16.25 2.12503V6.50003L13.75 4.00003V2.12503C13.75 1.77985 14.0298 1.50003 14.375 1.50003H15.625C15.9702 1.50003 16.25 1.77985 16.25 2.12503Z" fill="#1ED760"/>
<path fill-rule="evenodd" clip-rule="evenodd" d="M9.11612 0.875028C9.60427 0.386871 10.3957 0.386874 10.8839 0.875028L19.1919 9.18309C19.436 9.42716 19.436 9.82289 19.1919 10.067C18.9479 10.311 18.5521 10.311 18.3081 10.067L10 1.75891L1.69194 10.067C1.44786 10.311 1.05214 10.311 0.808058 10.067C0.563981 9.82289 0.563981 9.42716 0.808058 9.18309L9.11612 0.875028Z" fill="#1ED760"/>
</svg>
