<svg width="40" height="40" viewBox="0 0 40 40" fill="none" xmlns="http://www.w3.org/2000/svg">
<path d="M19.9999 0C8.95449 0 0 8.95446 0 20.0001C0 31.0463 8.95449 40 19.9999 40C31.0465 40 40 31.0463 40 20.0001C40 8.95518 31.0465 0.000955316 19.9996 0.000955316L19.9999 0ZM29.1717 28.8459C28.8135 29.4334 28.0444 29.6197 27.4569 29.2591C22.7612 26.3907 16.8498 25.7411 9.88805 27.3317C9.21719 27.4846 8.54848 27.0642 8.39564 26.3931C8.24207 25.722 8.66073 25.0533 9.33326 24.9004C16.9518 23.1598 23.4867 23.9093 28.7585 27.1311C29.346 27.4917 29.5323 28.2584 29.1717 28.8459ZM31.6196 23.4001C31.1683 24.1338 30.2082 24.3655 29.475 23.9141C24.0991 20.6096 15.9043 19.6526 9.54558 21.5828C8.72092 21.8319 7.84992 21.3672 7.59963 20.5439C7.35126 19.7193 7.81625 18.8499 8.63948 18.5991C15.9028 16.3952 24.9326 17.4628 31.1062 21.2566C31.8394 21.708 32.071 22.6679 31.6196 23.4001ZM31.8298 17.7293C25.3839 13.9006 14.7491 13.5486 8.59482 15.4165C7.60656 15.7162 6.56146 15.1583 6.26198 14.17C5.96249 13.1813 6.51991 12.1369 7.50888 11.8364C14.5735 9.69173 26.3177 10.1061 33.739 14.5118C34.6298 15.0394 34.9212 16.1874 34.3934 17.0752C33.8679 17.9641 32.7168 18.2571 31.8308 17.7293H31.8298Z" fill="#1ED760"/>
</svg>
